<svg xmlns="http://www.w3.org/2000/svg"><symbol id="arrow" viewBox="0 0 10 10"><path d="M9.6 4.4L1 .1c-.6-.3-1.3.3-1 1l1.8 3.6c.2.2.2.4.1.6L.1 9c-.3.6.3 1.3 1 1l8.6-4.3c.4-.3.4-1.1-.1-1.3"/></symbol><symbol id="ednavigatorlogo" viewBox="0 0 203.1 33"><path class="words" d="M50.2 6.8c0-.2.1-.3.3-.3H63c.2 0 .3.1.3.3v2.5c0 .2-.1.3-.3.3h-9.2c-.1 0-.2.1-.2.2v4.9c0 .1.1.2.2.2h7.7c.2 0 .3.1.3.3v2.5c0 .2-.1.3-.3.3h-7.7c-.1 0-.2.1-.2.2v5.1c0 .1.1.2.2.2H63c.2 0 .3.1.3.3v2.5c0 .2-.1.3-.3.3H50.5c-.2 0-.3-.1-.3-.3V6.8zm22.1 17.1c-1.4 0-2.2-.6-2.6-1.8-.1-.3-.2-.7-.2-1.1 0-.4-.1-.9-.1-1.6 0-.6 0-1.2.1-1.6 0-.4.1-.8.2-1.1.4-1.2 1.3-1.8 2.6-1.8 1.4 0 2.3.6 2.6 1.8.1.3.2.7.2 1.1 0 .4.1.9.1 1.6 0 .6 0 1.2-.1 1.6 0 .4-.1.8-.2 1.1-.3 1.2-1.2 1.8-2.6 1.8m6 2.6c.2 0 .3-.1.3-.3V6.8c0-.2-.1-.3-.3-.3h-2.7c-.2 0-.3.1-.3.3v6.9c-.3-.5-.8-.9-1.4-1.2-.6-.3-1.4-.5-2.4-.5-1.2 0-2.2.3-3.1.9-.8.6-1.5 1.4-1.8 2.6-.2.5-.3 1.1-.4 1.7-.1.6-.1 1.3-.1 2.3 0 1 0 1.7.1 2.3.1.6.2 1.1.4 1.7.4 1.1 1 2 1.8 2.6.8.6 1.9.9 3.1.9 1 0 1.7-.2 2.4-.5.6-.3 1.1-.7 1.4-1.2v1.1c0 .2.1.3.3.3h2.7zm22-19.7c0-.2-.1-.3-.3-.3h-5.6c-.2 0-.3.1-.3.3v.9c0 .2.1.3.3.3h1.8c.1 0 .2.1.2.2v15.1h-.1L86.5 6.8c-.1-.2-.3-.3-.5-.3h-3.3c-.2 0-.3.1-.3.3v.9c0 .2.1.3.3.3h1.8c.1 0 .2.1.2.2v16.7c0 .1-.1.2-.2.2h-1.8c-.2 0-.3.1-.3.3v.9c0 .2.1.3.3.3h5.6c.2 0 .3-.1.3-.3v-.9c0-.2-.1-.3-.3-.3h-1.8c-.1 0-.2-.1-.2-.2V9.7h.1l9.7 16.5c.1.2.3.3.5.3h1.1c.2 0 .3-.1.3-.3v-18c0-.1.1-.2.2-.2h1.8c.2 0 .3-.1.3-.3v-.9m4.6 13.8c.6-.5 1.6-.7 3-.7h3.3c.1 0 .2.1.2.2v2.1c0 1-.4 1.7-1.1 2.3-.7.6-1.7.9-2.9.9-1.1 0-2-.2-2.6-.7-.6-.5-.9-1.1-.9-2 0-1 .3-1.7 1-2.1m6.8-7.4c-.8-.7-2.1-1-3.8-1-.8 0-1.6.1-2.4.3-.8.2-1.4.4-2 .7-.1.1-.2.2-.2.4v2.5c0 .2.1.3.3.3h1c.2 0 .3-.1.3-.3v-1.7c0-.1 0-.2.1-.2.8-.4 1.7-.5 2.8-.5 1.3 0 2.2.2 2.7.8s.8 1.3.8 2.5v1.4c0 .1-.1.2-.2.2h-3.5c-1.7 0-3 .3-4 1-.9.7-1.4 1.7-1.4 3.1 0 1.3.4 2.4 1.3 3.1.8.7 2 1.1 3.4 1.1 1.1 0 2-.2 2.8-.6.7-.4 1.2-.9 1.5-1.5v1.5c0 .2.1.3.3.3h3.1c.2 0 .3-.1.3-.3v-.9c0-.2-.1-.3-.3-.3H113c-.1 0-.2-.1-.2-.2v-8c.1-1.8-.3-3-1.1-3.7m18.1-.4c0-.2-.1-.3-.3-.3h-4.4c-.2 0-.3.1-.3.3v.9c0 .2.1.3.3.3h1.4c.1 0 .2.1.1.2L123 24.3l-3.7-10.1v-.1l.1-.1h1.4c.2 0 .3-.1.3-.3v-.9c0-.2-.1-.3-.3-.3h-4.5c-.2 0-.3.1-.3.3v.9c0 .2.1.3.3.3h.9c.1 0 .2.1.2.2l4.6 12.1c.1.2.2.3.3.3h1.1c.2 0 .3-.1.3-.3l4.5-12.1c0-.1.1-.2.2-.2h.9c.2 0 .3-.1.3-.3v-.9m6.6-6c0-.2-.1-.3-.3-.3h-1.3c-.2 0-.3.1-.3.3v1.6c0 .2.1.3.3.3h1.3c.2 0 .3-.1.3-.3V6.8m-.1 6c0-.2-.1-.3-.3-.3h-3.1c-.2 0-.3.1-.3.3v.9c0 .2.1.3.3.3h1.6c.1 0 .2.1.2.2v10.7c0 .1-.1.2-.2.2h-1.6c-.2 0-.3.1-.3.3v.9c0 .2.1.3.3.3h5.2c.2 0 .3-.1.3-.3v-.9c0-.2-.1-.3-.3-.3h-1.6c-.1 0-.2-.1-.2-.2V12.8m7.8 1.5c.6-.4 1.3-.6 2.2-.6 1.8 0 2.9.8 3.5 2.5.2.7.4 1.8.4 3.2 0 1.4-.1 2.5-.4 3.2-.3.8-.7 1.5-1.3 1.9-.6.4-1.3.6-2.2.6-1.7 0-2.9-.8-3.4-2.5-.3-.8-.4-1.9-.4-3.2 0-1.4.1-2.5.4-3.2.2-.8.6-1.4 1.2-1.9m4.5-1.5c-.7-.4-1.5-.6-2.6-.6-1.2 0-2.1.3-2.9.9-.8.6-1.4 1.4-1.7 2.5-.3 1-.5 2.2-.5 3.8 0 1.6.2 2.9.5 3.8.4 1.1.9 1.9 1.7 2.5.8.6 1.8.9 3 .9 1.1 0 2-.2 2.6-.6.7-.4 1.2-1 1.5-1.7v2c0 2.8-1.3 4.3-4 4.3-1.5 0-2.6-.5-3.5-1.5-.1-.1-.1-.1-.2-.1s-.1 0-.2.1l-.7.6c-.1.1-.1.1-.1.2 0 0 0 .1.1.2.4.6 1 1.1 1.9 1.5.8.4 1.8.6 2.8.6 1.8 0 3.2-.5 4.1-1.5s1.5-2.4 1.5-4.4V14.1c0-.1.1-.2.2-.2h1.6c.2 0 .3-.1.3-.3v-.9c0-.2-.1-.3-.3-.3h-3.1c-.2 0-.3.1-.3.3v1.7c-.5-.6-1.1-1.2-1.7-1.6m10.3 7.8c.6-.5 1.6-.7 3-.7h3.3c.1 0 .2.1.2.2v2.1c0 1-.4 1.7-1.1 2.3-.7.6-1.7.9-2.9.9-1.1 0-2-.2-2.6-.7-.6-.5-.9-1.1-.9-2 0-1 .4-1.7 1-2.1m6.9-7.4c-.8-.7-2.1-1-3.8-1-.8 0-1.6.1-2.4.3-.8.2-1.4.4-2 .7-.1.1-.2.2-.2.4v2.5c0 .2.1.3.3.3h1c.2 0 .3-.1.3-.3v-1.7c0-.1 0-.2.1-.2.8-.4 1.7-.5 2.8-.5 1.3 0 2.2.2 2.7.8.5.5.8 1.3.8 2.5v1.4c0 .1-.1.2-.2.2h-3.5c-1.7 0-3 .3-4 1-.9.7-1.4 1.7-1.4 3.1 0 1.3.4 2.4 1.3 3.1s2 1.1 3.4 1.1c1.1 0 2-.2 2.8-.6.7-.4 1.2-.9 1.5-1.5v1.5c0 .2.1.3.3.3h3.1c.2 0 .3-.1.3-.3v-.9c0-.2-.1-.3-.3-.3h-1.6c-.1 0-.2-.1-.2-.2v-8c0-1.8-.3-3-1.1-3.7m8.4-4.9c0-.2-.1-.3-.3-.3h-1c-.2 0-.3.1-.3.3v4c0 .1-.1.2-.2.2h-1.5c-.2 0-.3.1-.3.3v.9c0 .2.1.3.3.3h1.5c.1 0 .2.1.2.2v8.6c0 1.4.3 2.3.8 2.9.6.6 1.5.9 2.8.9h.8c.2 0 .3-.1.3-.3v-.9c0-.2-.1-.3-.3-.3h-.5c-.8 0-1.4-.2-1.8-.5-.3-.3-.5-1-.5-1.9v-8.6c0-.1.1-.2.2-.2h2.6c.2 0 .3-.1.3-.3v-.9c0-.2-.1-.3-.3-.3h-2.6c-.1 0-.2-.1-.2-.2V8.3m9 6.1c.6-.5 1.4-.7 2.3-.7.9 0 1.7.2 2.4.7.6.5 1.1 1.1 1.4 1.9.3.8.4 1.8.4 3.1 0 1.4-.1 2.4-.4 3.2-.3.8-.7 1.5-1.4 1.9-.6.5-1.4.7-2.4.7-.9 0-1.7-.2-2.3-.7s-1.1-1.1-1.4-1.9c-.3-.8-.4-1.8-.4-3.2 0-1.3.1-2.4.4-3.1.3-.8.8-1.4 1.4-1.9m5.7-1.2c-.9-.6-2-1-3.3-1-1.3 0-2.4.3-3.3 1-.9.6-1.6 1.5-1.9 2.7-.3 1-.5 2.2-.5 3.6 0 1.5.2 2.7.5 3.7.4 1.2 1 2.1 1.9 2.7.9.6 2 1 3.3 1 1.3 0 2.4-.3 3.3-1 .9-.6 1.6-1.5 1.9-2.7.3-1 .5-2.2.5-3.7 0-1.4-.2-2.6-.5-3.6-.4-1.2-1-2.1-1.9-2.7m14.2-.7c-.4-.1-.9-.2-1.7-.2-.9 0-1.7.2-2.4.7-.7.5-1.1 1.1-1.5 1.9v-2.1c0-.2-.1-.3-.3-.3h-3.1c-.2 0-.3.1-.3.3v.9c0 .2.1.3.3.3h1.6c.1 0 .2.1.2.2v10.7c0 .1-.1.2-.2.2h-1.6c-.2 0-.3.1-.3.3v.9c0 .2.1.3.3.3h5.5c.2 0 .3-.1.3-.3v-.9c0-.2-.1-.3-.3-.3h-1.9c-.1 0-.2-.1-.2-.2v-6.2c0-1.6.3-2.8 1-3.6.7-.8 1.6-1.2 2.7-1.2.5 0 1.1.1 1.8.2.2.1.3 0 .3-.3v-1c0-.1-.1-.2-.2-.3"/><path class="mark" d="M31.4 21.5c0 .1-.1.3-.4.3h-9.8l4-5.4 6.1 4.5c.2.2.1.5.1.6m-9.9 5.1c-.1 0-.3.1-.5 0l-4.2-3.1h4.9v2.8c.1.1-.1.2-.2.3m-9.4 4.7c-.2.2-.4.2-.5.2-.1 0-.3-.1-.3-.4v-9.8l5.4 4-4.6 6zm-5.6-9.8c0-.1-.1-.3 0-.5l2.1-2.8 1-1.3v4.9H6.9c-.3 0-.4-.2-.4-.3m-4.7-9.4c-.2-.2-.2-.4-.2-.5 0-.1.1-.3.4-.3h9.8l-4 5.4-6-4.6zm9.7-5.6c.1 0 .3-.1.5 0l4.2 3.1h-4.9V6.8c-.1-.2.1-.3.2-.3M21 1.8c.2-.2.4-.2.5-.2.1 0 .3.1.3.4v9.8l-5.4-4 4.6-6zm-6.2 20l-3.5-2.6v-4.4l2.6-3.5h4.4l3.5 2.6v4.4l-2.6 3.5h-4.4zm11.8-10.3c0 .1.1.3 0 .5l-2.1 2.8-1 1.3v-4.9h2.8c.1 0 .2.2.3.3m5.6 8.2l-6.1-4.5 1.7-2.2c.5-.6.5-1.5.2-2.2-.4-.7-1.1-1.1-1.8-1.1h-2.8V2.1c0-.9-.6-1.7-1.4-2-.9-.3-1.8 0-2.3.7l-4.5 6.1L13 5.2c-.6-.5-1.5-.5-2.2-.2-.7.4-1.1 1.1-1.1 1.8v2.8H2.1c-.9 0-1.7.6-2 1.4-.3.9 0 1.8.7 2.3l6.1 4.5L5.2 20c-.5.6-.5 1.5-.2 2.2.4.7 1.1 1.1 1.8 1.1h2.8V31c0 .9.6 1.7 1.4 2 .2.1.4.1.7.1.6 0 1.2-.3 1.6-.8l4.5-6.1 2.2 1.7c.6.5 1.5.5 2.2.2.7-.4 1.1-1.1 1.1-1.8v-2.8H31c.9 0 1.7-.6 2-1.4.2-1-.1-1.9-.8-2.4"/></symbol><symbol id="icon-android" viewBox="0 0 17.6 21"><path d="M17.6 8.1c0-.7-.6-1.3-1.3-1.3-.7 0-1.3.6-1.3 1.3v5.4c0 .7.6 1.3 1.3 1.3.7 0 1.3-.6 1.3-1.3V8.1zM3.1 7v8.4c0 .8.6 1.4 1.4 1.4h.9v2.9c0 .7.6 1.3 1.3 1.3.7 0 1.3-.6 1.3-1.3v-2.9h1.7v2.9c0 .7.6 1.3 1.3 1.3.7 0 1.3-.6 1.3-1.3v-2.9h.9c.8 0 1.4-.6 1.4-1.4V7H3.1zm8.3-2.5c-.3 0-.5-.2-.5-.5s.2-.5.5-.5.5.2.5.5-.2.5-.5.5m-5.2 0c-.3 0-.5-.2-.5-.5s.2-.5.5-.5.5.2.5.5c-.1.3-.3.5-.5.5m5.4-2.6l.9-1.7c0-.1 0-.2-.1-.2s-.2 0-.2.1l-.9 1.7c-.8-.3-1.6-.5-2.5-.5-.9-.1-1.8.1-2.5.5L5.4.1C5.3 0 5.2 0 5.1 0c-.1.1-.1.2 0 .3L6 1.9c-1.8.9-3 2.7-3 4.7h11.5c.1-2-1.1-3.8-2.9-4.7M1.3 6.8C.6 6.8 0 7.4 0 8.1v5.4c0 .7.6 1.3 1.3 1.3.7 0 1.3-.6 1.3-1.3V8.1c0-.7-.6-1.3-1.3-1.3"/></symbol><symbol id="icon-apple" viewBox="0 0 17.9 22"><path d="M14.9 11.7c0 3.3 2.9 4.4 2.9 4.4 0 .1-.5 1.6-1.5 3.1-.9 1.4-1.9 2.7-3.4 2.7s-2-.9-3.6-.9c-1.7 0-2.2.8-3.6.9-1.4.1-2.5-1.4-3.5-2.8C.4 16.5-1 11.5.9 8.1c.9-1.7 2.7-2.7 4.5-2.8 1.4 0 2.8 1 3.6 1 .9 0 2.5-1.2 4.2-1 .7 0 2.7.3 4 2.2 0 .1-2.3 1.4-2.3 4.2m-2.7-8.2c.8-.9 1.3-2.2 1.1-3.5-1.1 0-2.5.8-3.2 1.7-.7.8-1.3 2.1-1.2 3.4 1.2.1 2.5-.6 3.3-1.6"/></symbol><symbol id="icon-facebook" viewBox="0 0 15 15"><path d="M14.2 0H.8C.4 0 0 .4 0 .8v13.3c0 .5.4.9.8.9H8V9.2H6V6.9h2V5.3c0-1.9 1.2-3 2.9-3 .8 0 1.5.1 1.7.1v2h-1.2c-.9 0-1.1.4-1.1 1.1v1.4h2.2l-.3 2.3h-1.9V15h3.8c.5 0 .8-.4.8-.8V.8c.1-.4-.3-.8-.7-.8"/></symbol><symbol id="icon-linkein" viewBox="0 0 15 15"><path d="M12.8 12.8h-2.2V9.3c0-.8 0-1.9-1.2-1.9s-1.3.9-1.3 1.8v3.5H5.8V5.6H8v1c.3-.6 1-1.2 2.1-1.2 2.3 0 2.7 1.5 2.7 3.4v4zM3.3 4.6C2.6 4.6 2 4.1 2 3.4s.6-1.3 1.3-1.3c.7 0 1.3.6 1.3 1.3S4 4.6 3.3 4.6m1.1 8.2H2.2V5.6h2.2v7.2zM13.9 0H1.1C.5 0 0 .5 0 1.1v12.8c0 .6.5 1.1 1.1 1.1h12.8c.6 0 1.1-.5 1.1-1.1V1.1c0-.6-.5-1.1-1.1-1.1"/></symbol><symbol id="icon-medium" viewBox="0 0 17.7 15"><path d="M17.7 2.7c0 .1 0 .1 0 0l-5.4 8.8-3.9-6.2 3.1-5c.1-.2.3-.3.5-.3h.2l5.5 2.7M6.8 4.1v5.7l5.1 2.5-5.1-8.2zm5.8 8.6l4.2 2.1c.5.3 1 .1 1-.4v-10l-5.2 8.3zM5.9 2.8L.7.1C.6.1.5 0 .4 0 .2.1 0 .3 0 .5v11.3c0 .3.2.7.5.8l4.6 2.3c.1.1.2.1.3.1.3 0 .5-.2.5-.6V2.8"/></symbol><symbol id="icon-twitter" viewBox="0 0 18.5 15"><path d="M5.8 15c7 0 10.8-5.8 10.8-10.8v-.5c.7-.5 1.4-1.2 1.9-2-.7.3-1.4.5-2.2.6.8-.5 1.4-1.2 1.7-2.1-.7.4-1.5.8-2.4.9C14.9.5 13.9 0 12.8 0 10.7 0 9 1.7 9 3.8c0 .3 0 .6.1.9C5.9 4.5 3.2 3 1.3.7 1 1.3.8 1.9.8 2.6c0 1.3.7 2.5 1.7 3.2-.6 0-1.2-.2-1.7-.5 0 1.8 1.3 3.4 3 3.7-.3.1-.7.1-1 .1-.2 0-.5 0-.7-.1.5 1.5 1.9 2.6 3.5 2.6-1.3 1-2.9 1.6-4.7 1.6-.3 0-.6 0-.9-.1C1.7 14.4 3.7 15 5.8 15"/></symbol></svg>