<?xml version="1.0" encoding="utf-8"?>
<!-- Generator: Adobe Illustrator 19.1.0, SVG Export Plug-In . SVG Version: 6.00 Build 0)  -->
<svg version="1.1" id="Layer_1" xmlns="http://www.w3.org/2000/svg" xmlns:xlink="http://www.w3.org/1999/xlink" x="0px" y="0px"
	 viewBox="0 0 100 100" style="enable-background:new 0 0 100 100;" xml:space="preserve">
<style type="text/css">
	.st0{fill:#FFFFFF;}
</style>
<g>
	<path class="st0" d="M50,100C22.4,100,0,77.6,0,50S22.4,0,50,0c27.6,0,50,22.4,50,50S77.6,100,50,100z M50,2C23.5,2,2,23.5,2,50
		c0,26.5,21.5,48,48,48s48-21.5,48-48C98,23.5,76.5,2,50,2z M54,75c-2.8,0-5-2.2-5-5h2c0,1.7,1.3,3,3,3s3-1.3,3-3h2
		C59,72.8,56.8,75,54,75z M51,70h-2V48.2c-2.1,0.1-4.2,0.7-6.1,1.7c-1.4,0.7-3,0.7-4.4,0c-2.2-1.1-4.6-1.7-7.1-1.7
		c-0.8,0-1.6,0.1-2.4,0.2l0,0c-1,0.2-2-0.2-2.7-0.9c-0.7-0.7-1-1.7-0.8-2.7C27.9,33.6,37.7,25.5,49,25v-5h2v5
		c11.3,0.5,21.1,8.6,23.4,19.7c0.2,1-0.1,2-0.8,2.7C73,48.2,72,48.5,71,48.3c-0.8-0.1-1.6-0.2-2.4-0.2c-2.5,0-4.9,0.6-7.1,1.7
		c-1.4,0.7-3,0.7-4.4,0c-1.9-1-4-1.5-6.1-1.7V70z M31.4,46.2c2.8,0,5.5,0.6,8,1.9c0.1,0.1,0.2,0.1,0.3,0.1c0.3-9.3,2.5-17,5.8-20.8
		c-8.8,1.8-16,8.7-18,17.7c-0.1,0.3,0,0.7,0.2,0.9c0.2,0.2,0.6,0.4,0.9,0.3l0,0C29.6,46.2,30.5,46.2,31.4,46.2z M54.5,27.5
		c3.2,3.8,5.5,11.5,5.8,20.8c0.1,0,0.2-0.1,0.3-0.1c2.5-1.3,5.2-1.9,8-1.9c0.9,0,1.8,0.1,2.7,0.2c0.3,0.1,0.7-0.1,0.9-0.3
		c0.2-0.2,0.3-0.6,0.2-0.9C70.6,36.1,63.3,29.2,54.5,27.5z M50,46.2c2.8,0,5.6,0.7,8,1.9c0.1,0,0.2,0.1,0.3,0.1
		C57.9,35.4,53.8,27,50,27c-3.8,0-7.9,8.4-8.3,21.2c0.1,0,0.2-0.1,0.3-0.1C44.5,46.8,47.2,46.2,50,46.2z"/>
</g>
<g>
</g>
<g>
</g>
<g>
</g>
<g>
</g>
<g>
</g>
<g>
</g>
</svg>
