<?xml version="1.0" encoding="utf-8"?>
<!-- Generator: Adobe Illustrator 19.1.0, SVG Export Plug-In . SVG Version: 6.00 Build 0)  -->
<svg version="1.1" id="Layer_1" xmlns="http://www.w3.org/2000/svg" xmlns:xlink="http://www.w3.org/1999/xlink" x="0px" y="0px"
	 viewBox="0 0 100 100" style="enable-background:new 0 0 100 100;" xml:space="preserve">
<style type="text/css">
	.st0{fill:#FFFFFF;}
</style>
<path class="st0" d="M50,100C22.4,100,0,77.6,0,50S22.4,0,50,0s50,22.4,50,50S77.6,100,50,100z M50,2C23.5,2,2,23.5,2,50
	c0,26.5,21.5,48,48,48c26.5,0,48-21.5,48-48C98,23.5,76.5,2,50,2z M51,84h-2v-9c-8.5-0.3-15.9-4.9-20.1-11.6l-7.8,4.5l-1-1.7
	l7.8-4.5C26,58.1,25,54.2,25,50s1-8.1,2.9-11.6l-7.8-4.5l1-1.7l7.8,4.5C33.1,29.9,40.5,25.4,49,25v-9h2v9
	c8.5,0.3,15.9,4.9,20.1,11.6l7.8-4.5l1,1.7l-7.8,4.5C74,41.9,75,45.8,75,50s-1,8.1-2.9,11.6l7.8,4.5l-1,1.7l-7.8-4.5
	C66.9,70.1,59.5,74.6,51,75V84z M50,27c-12.7,0-23,10.3-23,23c0,12.7,10.3,23,23,23c12.7,0,23-10.3,23-23C73,37.3,62.7,27,50,27z
	 M50,68c-9.9,0-18-8.1-18-18c0-9.9,8.1-18,18-18c9.9,0,18,8.1,18,18C68,59.9,59.9,68,50,68z M51,51.7V66c5.1-0.3,9.6-3.1,12.3-7.1
	L51,51.7z M36.7,58.8c2.7,4,7.2,6.8,12.3,7.1V51.7L36.7,58.8z M52,50l12.3,7.1C65.4,55,66,52.6,66,50s-0.6-5-1.7-7.1L52,50z
	 M35.7,42.9C34.6,45,34,47.4,34,50s0.6,5,1.7,7.1L48,50L35.7,42.9z M36.7,41.2L49,48.3V34C43.9,34.3,39.4,37.1,36.7,41.2z M51,34
	v14.2l12.3-7.1C60.6,37.1,56.1,34.3,51,34z"/>
<g>
</g>
<g>
</g>
<g>
</g>
<g>
</g>
<g>
</g>
<g>
</g>
</svg>
