<?xml version="1.0" encoding="utf-8"?>
<!-- Generator: Adobe Illustrator 19.1.0, SVG Export Plug-In . SVG Version: 6.00 Build 0)  -->
<svg version="1.1" id="Layer_1" xmlns="http://www.w3.org/2000/svg" xmlns:xlink="http://www.w3.org/1999/xlink" x="0px" y="0px"
	 viewBox="0 0 100 100" style="enable-background:new 0 0 100 100;" xml:space="preserve">
<style type="text/css">
	.st0{fill:#FFFFFF;}
</style>
<path class="st0" d="M50,100C22.4,100,0,77.6,0,50C0,22.4,22.4,0,50,0s50,22.4,50,50C100,77.6,77.6,100,50,100z M50,2
	C23.5,2,2,23.5,2,50s21.5,48,48,48c26.5,0,48-21.5,48-48S76.5,2,50,2z M67,75H33v-2h9V31.7c-2.9,0.9-5.9,1.3-9,1.3v-2
	c7.4,0,14.5-2.8,19.9-7.9c0.9-0.8,2.2-1.1,3.3-0.6C57.3,23,58,24,58,25.2V73h9V75z M44,73h12V25.2c0-0.6-0.4-0.8-0.6-0.9
	c-0.1-0.1-0.6-0.2-1.1,0.2c-3,2.9-6.5,5-10.3,6.5V73z"/>
<g>
</g>
<g>
</g>
<g>
</g>
<g>
</g>
<g>
</g>
<g>
</g>
</svg>
