<?xml version="1.0" encoding="utf-8"?>
<!-- Generator: Adobe Illustrator 19.1.0, SVG Export Plug-In . SVG Version: 6.00 Build 0)  -->
<svg version="1.1" id="Layer_1" xmlns="http://www.w3.org/2000/svg" xmlns:xlink="http://www.w3.org/1999/xlink" x="0px" y="0px"
	 viewBox="0 0 100 100" style="enable-background:new 0 0 100 100;" xml:space="preserve">
<style type="text/css">
	.st0{fill:#FFFFFF;}
</style>
<g>
	<path class="st0" d="M50,100C22.4,100,0,77.6,0,50S22.4,0,50,0c27.6,0,50,22.4,50,50S77.6,100,50,100z M50,2C23.5,2,2,23.5,2,50
		c0,26.5,21.5,48,48,48s48-21.5,48-48C98,23.5,76.5,2,50,2z M68,75H32v-2h17V27H33.5L43,49.8V50c0,6.1-4.9,11-11,11s-11-4.9-11-11
		v-0.2L31.3,25H49v-5h2v5h17.7L79,49.8V50c0,6.1-4.9,11-11,11c-2.9,0-5.7-1.1-7.8-3.2c-2.1-2.1-3.2-4.9-3.2-7.9l0-0.2L66.5,27H51v46
		h17V75z M59.1,51c0.2,2,1.1,3.9,2.5,5.4c1.7,1.7,3.9,2.6,6.3,2.6c4.6,0,8.4-3.5,8.9-8H59.1z M23.1,51c0.5,4.5,4.3,8,8.9,8
		s8.4-3.5,8.9-8H23.1z M59.5,49h17L68,28.6L59.5,49z M23.5,49h17L32,28.6L23.5,49z"/>
</g>
<g>
</g>
<g>
</g>
<g>
</g>
<g>
</g>
<g>
</g>
<g>
</g>
</svg>
