<?xml version="1.0" encoding="utf-8"?>
<!-- Generator: Adobe Illustrator 19.1.0, SVG Export Plug-In . SVG Version: 6.00 Build 0)  -->
<svg version="1.1" id="Layer_1" xmlns="http://www.w3.org/2000/svg" xmlns:xlink="http://www.w3.org/1999/xlink" x="0px" y="0px"
	 viewBox="0 0 100 100" style="enable-background:new 0 0 100 100;" xml:space="preserve">
<style type="text/css">
	.st0{fill:#FFFFFF;}
</style>
<g>
	<path class="st0" d="M50,100C22.4,100,0,77.6,0,50S22.4,0,50,0c27.6,0,50,22.4,50,50S77.6,100,50,100z M50,2C23.5,2,2,23.5,2,50
		c0,26.5,21.5,48,48,48s48-21.5,48-48C98,23.5,76.5,2,50,2z M67,71H33c-2.2,0-4-1.8-4-4V45c0-2.2,1.8-4,4-4h6v-7c0-6.1,4.9-11,11-11
		c6.1,0,11,4.9,11,11v7h6c2.2,0,4,1.8,4,4v22C71,69.2,69.2,71,67,71z M31,63v4c0,1.1,0.9,2,2,2h34c1.1,0,2-0.9,2-2V45
		c0-1.1-0.9-2-2-2H33c-1.1,0-2,0.9-2,2v4h10v2H31v4h10v2H31v4h10v2H31z M41,41h18v-7c0-5-4-9-9-9s-9,4-9,9V41z"/>
</g>
<g>
</g>
<g>
</g>
<g>
</g>
<g>
</g>
<g>
</g>
<g>
</g>
</svg>
