<?xml version="1.0" encoding="utf-8"?>
<!-- Generator: Adobe Illustrator 19.1.0, SVG Export Plug-In . SVG Version: 6.00 Build 0)  -->
<svg version="1.1" id="Layer_1" xmlns="http://www.w3.org/2000/svg" xmlns:xlink="http://www.w3.org/1999/xlink" x="0px" y="0px"
	 viewBox="0 0 100 100" style="enable-background:new 0 0 100 100;" xml:space="preserve">
<style type="text/css">
	.st0{fill:#FFFFFF;}
</style>
<g>
	<path class="st0" d="M50,100C22.4,100,0,77.6,0,50S22.4,0,50,0c27.6,0,50,22.4,50,50S77.6,100,50,100z M50,2C23.5,2,2,23.5,2,50
		c0,26.5,21.5,48,48,48s48-21.5,48-48C98,23.5,76.5,2,50,2z M51,90h-2v-8h2V90z M32.6,70.4c-0.8,0-1.5-0.3-2.1-0.9
		c-0.9-0.9-1.1-2.2-0.6-3.3l9.8-22.9c0.7-1.7,2-3,3.7-3.7l22.9-9.8c1.1-0.5,2.4-0.2,3.3,0.6s1.1,2.2,0.6,3.3l-9.8,22.9
		c-0.7,1.7-2,3-3.7,3.7l-22.9,9.8C33.4,70.3,33,70.4,32.6,70.4z M31.7,67c-0.2,0.6,0.1,1,0.2,1.1c0.1,0.1,0.5,0.5,1.1,0.2l22.9-9.8
		c0.3-0.1,0.5-0.3,0.8-0.4L41.9,43.3c-0.2,0.2-0.3,0.5-0.4,0.8L31.7,67z M43.3,41.9l14.8,14.8c0.2-0.2,0.3-0.5,0.4-0.8L68.3,33
		c0.2-0.6-0.1-1-0.2-1.1s-0.5-0.5-1.1-0.2l-22.9,9.8C43.8,41.6,43.6,41.7,43.3,41.9z M90,51h-8v-2h8V51z M18,51h-8v-2h8V51z M51,18
		h-2v-8h2V18z"/>
</g>
<g>
</g>
<g>
</g>
<g>
</g>
<g>
</g>
<g>
</g>
<g>
</g>
</svg>
