<?xml version="1.0" encoding="UTF-8"?>
<svg width="300px" height="300px" xmlns="http://www.w3.org/2000/svg" viewBox="-780 1141 33.1 33.1">
  <path fill="#FAA11C" d="M-758.2 1159.2V1143c0-.3-.2-.4-.3-.4s-.3-.1-.5.2l-4.5 6.1-1.3-1 4.5-6.1c.5-.7 1.4-1 2.3-.7.9.3 1.4 1.1 1.4 2v14.1l-1.6 2z"></path>
  <path fill="#F7BF12" d="M-752 1151.7c-.4-.7-1.1-1.1-1.8-1.1h-2.8v1.6h2.8c.3 0 .4.2.4.3s.1.3 0 .5l-7.4 9.8h2l6.6-8.9c.5-.7.6-1.5.2-2.2"></path>
  <path fill="#F7CC0D" d="M-747.8 1160.6l-6.1-4.5-1 1.3 6.1 4.5c.2.2.2.4.2.5s-.1.3-.4.3h-16.2l2.1 1.6h14.1c.9 0 1.7-.6 2-1.4.2-.8 0-1.7-.8-2.3"></path>
  <path fill="#F7BF12" d="M-756.6 1164.3h-1.6v2.8c0 .3-.2.4-.3.4s-.3.1-.5 0l-9.8-7.4v2l8.9 6.6c.4.3.8.4 1.2.4.3 0 .6-.1.9-.2.7-.4 1.1-1.1 1.1-1.8l.1-2.8z"></path>
  <path fill="#FAA11C" d="M-763.4 1166.1l-4.5 6.1c-.2.2-.4.2-.5.2-.1 0-.3-.1-.3-.4v-16.2l-1.6 2.1v14.1c0 .9.6 1.7 1.4 2 .2.1.4.1.7.1.6 0 1.2-.3 1.6-.8l4.5-6.1-1.3-1.1z"></path>
  <path fill="#F7BF12" d="M-773.1 1162.7c-.3 0-.4-.2-.4-.3s-.1-.3 0-.5l7.4-9.8h-2l-6.6 8.9c-.5.6-.5 1.5-.2 2.2.4.7 1.1 1.1 1.8 1.1h2.8v-1.6h-2.8z"></path>
  <path fill="#F7CC0D" d="M-778.3 1152.5c0-.1.1-.3.4-.3h16.2l-2.1-1.6h-14.1c-.9 0-1.7.6-2 1.4-.3.9 0 1.8.7 2.3l6.1 4.5 1-1.3-6.1-4.5c-.2-.2-.2-.4-.1-.5"></path>
  <path fill="#F7BF12" d="M-767 1146.2c-.6-.5-1.5-.5-2.2-.2-.7.4-1.1 1.1-1.1 1.8v2.8h1.6v-2.8c0-.3.2-.4.3-.4.1 0 .3-.1.5 0l9.8 7.4v-2l-8.9-6.6z"></path>
</svg>
