<svg class="publication-ribbon" width="35" height="45" viewBox="0 0 35 45" fill="none" xmlns="http://www.w3.org/2000/svg"><g clip-path="url(#publication-ribbon-clip)"><path fill-rule="evenodd" clip-rule="evenodd" d="M35 0H0V35V42.0136C0 43.4371 1.44516 44.4049 2.7615 43.8629L17 38H18L32.2385 43.8629C33.5548 44.4049 35 43.4371 35 42.0136V35V0Z" fill="#1C1F21"/><mask id="path-3-inside-1" fill="white"><path fill-rule="evenodd" clip-rule="evenodd" d="M35 -2H0V35V42.0136C0 43.4371 1.44516 44.4049 2.7615 43.8629L17 38H18L32.2385 43.8629C33.5548 44.4049 35 43.4371 35 42.0136V35V-2Z"/></mask><path d="M0 -2V-4H-2V-2H0ZM35 -2H37V-4H35V-2ZM2.7615 43.8629L2 42.0136L2 42.0136L2.7615 43.8629ZM17 38V36H16.6043L16.2385 36.1506L17 38ZM18 38L18.7615 36.1506L18.3957 36H18V38ZM32.2385 43.8629L33 42.0136V42.0136L32.2385 43.8629ZM0 0H35V-4H0V0ZM2 35V-2H-2V35H2ZM2 42.0136V35H-2V42.0136H2ZM2 42.0136H2H-2C-2 44.8607 0.89031 46.7963 3.523 45.7123L2 42.0136ZM16.2385 36.1506L2 42.0136L3.523 45.7123L17.7615 39.8494L16.2385 36.1506ZM18 36H17V40H18V36ZM33 42.0136L18.7615 36.1506L17.2385 39.8494L31.477 45.7123L33 42.0136ZM33 42.0136L31.477 45.7123C34.1097 46.7963 37 44.8607 37 42.0136H33ZM33 35V42.0136H37V35H33ZM33 -2V35H37V-2H33Z" fill="white" mask="url(#path-3-inside-1)"/><path d="M15 13.5C16.5 13.5 17.5 14.5 17.5 16V24C17.5 22.5 16.5 21.5 15 21.5H12.5V13.5H15Z" stroke="white" stroke-linejoin="round"/><path d="M20 13.5C18.5 13.5 17.5 14.5 17.5 16V24C17.5 22.5 18.5 21.5 20 21.5H22.5V13.5H20Z" stroke="white" stroke-linejoin="round"/><path d="M10.5 15V23.5H14.5C15.0523 23.5 15.5 23.9477 15.5 24.5V25.5H19.5V24.5C19.5 23.9477 19.9477 23.5 20.5 23.5H24.5V15" stroke="white" stroke-linejoin="round"/></g><defs><clipPath id="publication-ribbon-clip"><path d="M0 0H35V45H0V0Z" fill="white"/></clipPath></defs></svg>
