<svg xmlns="http://www.w3.org/2000/svg" viewBox="0 0 50.8 10" enable-background="new 0 0 50.8 10"><path d="M37.2 5.5c-.1-.1-.2-.3-.2-.5s.1-.4.2-.5c.1-.1.3-.2.5-.2s.4.1.5.2c.1.1.2.3.2.5s-.1.4-.2.5c-.1.1-.3.2-.5.2-.2.1-.3 0-.5-.2zM32.4 5c0-.4.3-.8.8-.8.4 0 .8.3.8.8 0 .4-.3.8-.8.8s-.8-.4-.8-.8zm-4.6 0c0-.4.3-.8.8-.8.4 0 .8.3.8.8 0 .4-.3.8-.8.8s-.8-.4-.8-.8zm-4.7 0c0-.4.3-.8.8-.8.4 0 .8.3.8.8 0 .4-.3.8-.8.8-.4 0-.8-.4-.8-.8zm-4.6 0c0-.4.3-.8.8-.8.4.1.7.4.7.8s-.3.8-.8.8c-.4 0-.7-.4-.7-.8zm-4.6 0c0-.4.3-.8.8-.8.4 0 .8.3.8.8 0 .4-.3.8-.8.8s-.8-.4-.8-.8zM9.2 5c0-.4.3-.8.8-.8.4 0 .8.3.8.8 0 .4-.3.8-.8.8-.4 0-.8-.4-.8-.8zM4.6 5c0-.4.3-.8.7-.8.4 0 .8.3.8.8 0 .4-.3.8-.8.8-.3 0-.7-.4-.7-.8zm-4.4.5C.1 5.4 0 5.2 0 5s.1-.4.2-.5c.1-.1.3-.2.5-.2s.4.1.5.2c.2.1.3.3.3.5s-.1.4-.2.5c-.2.2-.4.3-.5.3-.3 0-.4-.1-.6-.3zm50.2-1.1L41.8.1c-.6-.3-1.3.3-1 1l1.8 3.6c.1.2.1.4 0 .6L40.8 9c-.3.6.3 1.3 1 1l8.6-4.3c.5-.3.5-1.1 0-1.3"/></svg>