<svg width="15" height="15" viewBox="0 0 15 15" xmlns="http://www.w3.org/2000/svg"><path d="M9.491 4.50963L8.68882 2.04078C8.31463 0.88914 6.68537 0.889144 6.31118 2.04078L5.509 4.50963C5.47553 4.61263 5.37954 4.68237 5.27124 4.68237H2.67534C1.46443 4.68237 0.960967 6.23189 1.94061 6.94364L4.04073 8.46947C4.12836 8.53314 4.16502 8.64598 4.13155 8.74898L3.32937 11.2178C2.95518 12.3695 4.27329 13.3271 5.25293 12.6154L7.35305 11.0895C7.44068 11.0259 7.55932 11.0259 7.64695 11.0895L9.74707 12.6154C10.7267 13.3271 12.0448 12.3695 11.6706 11.2178L10.8684 8.74898C10.835 8.64598 10.8716 8.53314 10.9593 8.46947L13.0594 6.94364C14.039 6.23189 13.5356 4.68237 12.3247 4.68237H9.72876C9.62046 4.68237 9.52447 4.61263 9.491 4.50963Z"/></svg>