<svg width="15" height="15" viewBox="0 0 15 15" xmlns="http://www.w3.org/2000/svg"><path fill-rule="evenodd" clip-rule="evenodd" d="M5 2.5C5 3.32843 4.32843 4 3.5 4C2.67157 4 2 3.32843 2 2.5C2 1.67157 2.67157 1 3.5 1C4.32843 1 5 1.67157 5 2.5ZM6 2.5C6 3.88071 4.88071 5 3.5 5C2.11929 5 1 3.88071 1 2.5C1 1.11929 2.11929 0 3.5 0C4.88071 0 6 1.11929 6 2.5ZM13 6.5C13 7.32843 12.3284 8 11.5 8C10.6716 8 10 7.32843 10 6.5C10 5.67157 10.6716 5 11.5 5C12.3284 5 13 5.67157 13 6.5ZM14 6.5C14 7.88071 12.8807 9 11.5 9C10.1193 9 9 7.88071 9 6.5C9 5.11929 10.1193 4 11.5 4C12.8807 4 14 5.11929 14 6.5ZM0 9.5C0 7.567 1.567 6 3.5 6C5.433 6 7 7.567 7 9.5V14.5C7 14.7761 6.77614 15 6.5 15H0.5C0.223858 15 0 14.7761 0 14.5V9.5ZM3.5 7C2.11929 7 1 8.11929 1 9.5V14H6V9.5C6 8.11929 4.88071 7 3.5 7ZM11.5 10C9.567 10 8 11.567 8 13.5V14.5C8 14.7761 8.22386 15 8.5 15H14.5C14.7761 15 15 14.7761 15 14.5V13.5C15 11.567 13.433 10 11.5 10ZM9 13.5C9 12.1193 10.1193 11 11.5 11C12.8807 11 14 12.1193 14 13.5V14H9V13.5Z"/></svg>