<svg width="19" height="15" viewBox="0 0 19 15" xmlns="http://www.w3.org/2000/svg"><path d="M6.28385 15C13.2485 15 17.061 9.22615 17.061 4.22282C17.061 4.06271 17.061 3.8926 17.051 3.73249C17.7915 3.20214 18.432 2.53169 18.9423 1.77118C18.2618 2.07138 17.5314 2.27152 16.7709 2.37158C17.5514 1.90127 18.1518 1.16078 18.442 0.280193C17.7115 0.71048 16.9009 1.03069 16.0404 1.2008C15.3499 0.460311 14.3592 0 13.2785 0C11.1871 0 9.486 1.70113 9.486 3.79253C9.486 4.09273 9.51601 4.38292 9.58606 4.6531C6.43396 4.493 3.6421 2.992 1.77085 0.690462C1.45064 1.25084 1.26052 1.90127 1.26052 2.59173C1.26052 3.9026 1.93096 5.06338 2.94163 5.74383C2.32122 5.72382 1.74084 5.5537 1.2305 5.27352C1.2305 5.29353 1.2305 5.30353 1.2305 5.32355C1.2305 7.15477 2.54136 8.68579 4.27252 9.03603C3.9523 9.12609 3.62208 9.16611 3.27185 9.16611C3.03169 9.16611 2.79152 9.1461 2.56137 9.09606C3.04169 10.5971 4.44263 11.6978 6.10374 11.7278C4.80287 12.7385 3.17179 13.3489 1.40061 13.3489C1.0904 13.3489 0.790193 13.3289 0.5 13.2989C2.1511 14.3696 4.14243 15 6.28385 15Z"/></svg>
