<svg width="35" height="45" viewBox="0 0 35 45" fill="none" xmlns="http://www.w3.org/2000/svg">
<g clip-path="url(#clip0)">
<path fill-rule="evenodd" clip-rule="evenodd" d="M35 0H0V35V42.0136C0 43.4371 1.44516 44.4049 2.7615 43.8629L17 38H18L32.2385 43.8629C33.5548 44.4049 35 43.4371 35 42.0136V35V0Z" fill="#F7CC0D"/>
<mask id="path-3-inside-1" fill="white">
<path fill-rule="evenodd" clip-rule="evenodd" d="M35 -2H0V35V42.0136C0 43.4371 1.44516 44.4049 2.7615 43.8629L17 38H18L32.2385 43.8629C33.5548 44.4049 35 43.4371 35 42.0136V35V-2Z"/>
</mask>
<path d="M0 -2V-4H-2V-2H0ZM35 -2H37V-4H35V-2ZM2.7615 43.8629L2 42.0136L2 42.0136L2.7615 43.8629ZM17 38V36H16.6043L16.2385 36.1506L17 38ZM18 38L18.7615 36.1506L18.3957 36H18V38ZM32.2385 43.8629L33 42.0136V42.0136L32.2385 43.8629ZM0 0H35V-4H0V0ZM2 35V-2H-2V35H2ZM2 42.0136V35H-2V42.0136H2ZM2 42.0136H2H-2C-2 44.8607 0.89031 46.7963 3.523 45.7123L2 42.0136ZM16.2385 36.1506L2 42.0136L3.523 45.7123L17.7615 39.8494L16.2385 36.1506ZM18 36H17V40H18V36ZM33 42.0136L18.7615 36.1506L17.2385 39.8494L31.477 45.7123L33 42.0136ZM33 42.0136L31.477 45.7123C34.1097 46.7963 37 44.8607 37 42.0136H33ZM33 35V42.0136H37V35H33ZM33 -2V35H37V-2H33Z" fill="white" mask="url(#path-3-inside-1)"/>
<path d="M16.7867 14.1953C17.0112 13.5043 17.9888 13.5043 18.2133 14.1953L19.0155 16.6641C19.1159 16.9732 19.4038 17.1824 19.7288 17.1824H22.3247C23.0512 17.1824 23.3533 18.1121 22.7655 18.5391L20.6654 20.065C20.4025 20.2559 20.2925 20.5945 20.3929 20.9035L21.1951 23.3723C21.4196 24.0633 20.6288 24.6379 20.041 24.2109L17.9408 22.685C17.678 22.4941 17.322 22.4941 17.0592 22.685L14.959 24.2109C14.3712 24.6379 13.5804 24.0633 13.8049 23.3723L14.6071 20.9035C14.7075 20.5945 14.5975 20.2559 14.3346 20.065L12.2345 18.5391C11.6467 18.1121 11.9488 17.1824 12.6753 17.1824H15.2712C15.5962 17.1824 15.8841 16.9732 15.9845 16.6641L16.7867 14.1953Z" fill="#1C1F21"/>
</g>
<defs>
<clipPath id="clip0">
<path d="M0 0H35V45H0V0Z" fill="white"/>
</clipPath>
</defs>
</svg>
