<svg width="15" height="15" viewBox="0 0 15 15" xmlns="http://www.w3.org/2000/svg"><path fill-rule="evenodd" clip-rule="evenodd" d="M4 0.5C4 0.223858 4.22386 0 4.5 0C4.77614 0 5 0.223858 5 0.5V3.5C5 3.77614 4.77614 4 4.5 4C4.22386 4 4 3.77614 4 3.5V0.5ZM0 2.5C0 2.22386 0.223858 2 0.5 2H1H3V3H1V6H14V3H12V2H14H14.5C14.7761 2 15 2.22386 15 2.5V14.5C15 14.7761 14.7761 15 14.5 15H0.5C0.223858 15 0 14.7761 0 14.5V2.5ZM1 14V7H14V14H1ZM10.5 0C10.2239 0 10 0.223858 10 0.5V3.5C10 3.77614 10.2239 4 10.5 4C10.7761 4 11 3.77614 11 3.5V0.5C11 0.223858 10.7761 0 10.5 0ZM9 2H6V3H9V2Z" /></svg>