<svg xmlns="http://www.w3.org/2000/svg" viewBox="-280 392 50.8 10"><path d="M-266.9 397.7c-.2 0-.4-.1-.5-.2-.1-.1-.2-.3-.2-.5s.1-.4.2-.5c.1-.1.3-.2.5-.2s.4.1.5.2.2.3.2.5-.1.4-.2.5c-.2.2-.3.3-.5.2zm4.5.1c-.5 0-.8-.4-.8-.8 0-.5.4-.8.8-.8.5 0 .8.4.8.8s-.3.8-.8.8zm4.6 0c-.5 0-.8-.4-.8-.8 0-.5.4-.8.8-.8.5 0 .8.4.8.8s-.3.8-.8.8zm4.7 0c-.5 0-.8-.4-.8-.8 0-.5.4-.8.8-.8.5 0 .8.4.8.8s-.4.8-.8.8zm4.7 0c-.5 0-.8-.4-.8-.8s.3-.7.7-.8c.5 0 .8.4.8.8s-.3.8-.7.8zm4.5 0c-.5 0-.8-.4-.8-.8 0-.5.4-.8.8-.8.5 0 .8.4.8.8s-.3.8-.8.8zm4.7 0c-.5 0-.8-.4-.8-.8 0-.5.4-.8.8-.8.5 0 .8.4.8.8s-.4.8-.8.8zm4.7 0c-.5 0-.8-.4-.8-.8 0-.5.4-.8.8-.8s.7.4.7.8-.4.8-.7.8zm4.5 0c-.1 0-.3-.1-.5-.3-.1-.1-.2-.3-.2-.5s.1-.4.3-.5c.1-.1.3-.2.5-.2s.4.1.5.2c.1.1.2.3.2.5s-.1.4-.2.5c-.2.2-.3.3-.6.3zm-49.6-1.4c-.5.2-.5 1 0 1.3l8.6 4.3c.7.3 1.3-.4 1-1l-1.8-3.7c-.1-.2-.1-.4 0-.6l1.8-3.6c.3-.7-.4-1.3-1-1l-8.6 4.3"/></svg>