<svg width="15" height="15" viewBox="0 0 15 15" xmlns="http://www.w3.org/2000/svg"><path fill-rule="evenodd" clip-rule="evenodd" d="M12 5.5C12 7.71461 10.9942 9.88761 9.81127 11.5438C9.22525 12.3642 8.61811 13.0258 8.11689 13.4713C7.86486 13.6954 7.65615 13.85 7.50446 13.9421L7.5 13.9448L7.49554 13.9421C7.34385 13.85 7.13514 13.6954 6.88311 13.4713C6.38189 13.0258 5.77475 12.3642 5.18873 11.5438C4.00577 9.88761 3 7.71461 3 5.5C3 3.01472 5.01472 1 7.5 1C9.98528 1 12 3.01472 12 5.5ZM13 5.5C13 10.5 8.5 15 7.5 15C6.5 15 2 10.5 2 5.5C2 2.46243 4.46243 0 7.5 0C10.5376 0 13 2.46243 13 5.5ZM9 5.5C9 6.32843 8.32843 7 7.5 7C6.67157 7 6 6.32843 6 5.5C6 4.67157 6.67157 4 7.5 4C8.32843 4 9 4.67157 9 5.5ZM10 5.5C10 6.88071 8.88071 8 7.5 8C6.11929 8 5 6.88071 5 5.5C5 4.11929 6.11929 3 7.5 3C8.88071 3 10 4.11929 10 5.5Z" /></svg>