<svg width="15" height="15" viewBox="0 0 15 15" xmlns="http://www.w3.org/2000/svg"><path fill-rule="evenodd" clip-rule="evenodd" d="M3.5 0C3.22386 0 3 0.223858 3 0.5V10H2V11H13V10H12V3C12 2.86739 11.9473 2.74021 11.8536 2.64645L9.35355 0.146447C9.25979 0.0526783 9.13261 0 9 0H3.5ZM4 10H11V4H8.5C8.22386 4 8 3.77614 8 3.5V1H4V10ZM9 1.20711L10.7929 3H9V1.20711ZM0 6.5C0 6.22386 0.223858 6 0.5 6H2V7H1V14H14V7H13V6H14.5C14.7761 6 15 6.22386 15 6.5V14.5C15 14.7761 14.7761 15 14.5 15H0.5C0.223858 15 0 14.7761 0 14.5V6.5ZM10 5H5V6H10V5ZM5 7H10V8H5V7ZM11 12.5C11 12.7761 11.2239 13 11.5 13C11.7761 13 12 12.7761 12 12.5C12 12.2239 11.7761 12 11.5 12C11.2239 12 11 12.2239 11 12.5Z"/></svg>
