<svg width="15" height="15" viewBox="0 0 15 15" xmlns="http://www.w3.org/2000/svg"><path fill-rule="evenodd" clip-rule="evenodd" d="M7.5 0C11.64 0 15 3.38028 15 7.54527C15 11.3104 12.255 14.4341 8.6775 15V9.7259H10.4178L10.4178 9.72586H10.425L10.7418 7.63275L10.7553 7.54532H10.755L10.755 7.54527H8.67779V6.12681C8.67779 6.10495 8.67819 6.08312 8.67899 6.06133C8.70248 5.49171 9.00801 4.95724 9.9 4.95724H10.845V4.94975H10.8453V3.09361C10.8453 3.09361 9.99029 2.94271 9.16529 2.94271C7.51421 2.94271 6.40852 3.91343 6.33428 5.68509C6.33143 5.75073 6.33 5.81747 6.33 5.88531V7.54527H4.425V9.72586H4.42529V9.7259H6.33V15C2.745 14.4341 0 11.3104 0 7.54527C0 3.38028 3.36 0 7.5 0Z"/></svg>
