<svg xmlns="http://www.w3.org/2000/svg" viewBox="0 0 17.6 21" enable-background="new 0 0 17.6 21"><path d="M17.6 8.1c0-.7-.6-1.3-1.3-1.3-.7 0-1.3.6-1.3 1.3v5.4c0 .7.6 1.3 1.3 1.3.7 0 1.3-.6 1.3-1.3V8.1zM3.1 7v8.4c0 .8.6 1.4 1.4 1.4h.9v2.9c0 .7.6 1.3 1.3 1.3.7 0 1.3-.6 1.3-1.3v-2.9h1.7v2.9c0 .7.6 1.3 1.3 1.3.7 0 1.3-.6 1.3-1.3v-2.9h.9c.8 0 1.4-.6 1.4-1.4V7H3.1zm8.3-2.5c-.3 0-.5-.2-.5-.5s.2-.5.5-.5.5.2.5.5-.2.5-.5.5m-5.2 0c-.3 0-.5-.2-.5-.5s.2-.5.5-.5.5.2.5.5c-.1.3-.3.5-.5.5m5.4-2.6l.9-1.7c0-.1 0-.2-.1-.2s-.2 0-.2.1l-.9 1.7c-.8-.3-1.6-.5-2.5-.5-.9-.1-1.8.1-2.5.5L5.4.1C5.3 0 5.2 0 5.1 0c-.1.1-.1.2 0 .3L6 1.9c-1.8.9-3 2.7-3 4.7h11.5c.1-2-1.1-3.8-2.9-4.7M1.3 6.8C.6 6.8 0 7.4 0 8.1v5.4c0 .7.6 1.3 1.3 1.3.7 0 1.3-.6 1.3-1.3V8.1c0-.7-.6-1.3-1.3-1.3"/></svg>