<svg width="15" height="15" viewBox="0 0 15 15" xmlns="http://www.w3.org/2000/svg"><path fill-rule="evenodd" clip-rule="evenodd" d="M1 1.5C1 1.22386 1.22386 1 1.5 1H13.5C13.7761 1 14 1.22386 14 1.5V9.5C14 9.77614 13.7761 10 13.5 10H11.5C11.2239 10 11 10.2239 11 10.5V13.2929L7.85355 10.1464C7.75979 10.0527 7.63261 10 7.5 10H1.5C1.22386 10 1 9.77614 1 9.5V1.5ZM1.5 0C0.671573 0 0 0.671573 0 1.5V9.5C0 10.3284 0.671573 11 1.5 11H7.29289L11.1464 14.8536C11.2894 14.9966 11.5045 15.0393 11.6913 14.9619C11.8782 14.8845 12 14.7022 12 14.5V11H13.5C14.3284 11 15 10.3284 15 9.5V1.5C15 0.671573 14.3284 0 13.5 0H1.5ZM4.5 6C4.77614 6 5 5.77614 5 5.5C5 5.22386 4.77614 5 4.5 5C4.22386 5 4 5.22386 4 5.5C4 5.77614 4.22386 6 4.5 6ZM8 5.5C8 5.77614 7.77614 6 7.5 6C7.22386 6 7 5.77614 7 5.5C7 5.22386 7.22386 5 7.5 5C7.77614 5 8 5.22386 8 5.5ZM10.5 6C10.7761 6 11 5.77614 11 5.5C11 5.22386 10.7761 5 10.5 5C10.2239 5 10 5.22386 10 5.5C10 5.77614 10.2239 6 10.5 6Z"/></svg>