<svg width="15" height="15" viewBox="0 0 15 15" xmlns="http://www.w3.org/2000/svg"><path fill-rule="evenodd" clip-rule="evenodd" d="M0.5 0C0.223858 0 0 0.223858 0 0.5V6.5C0 6.63261 0.0526784 6.75979 0.146447 6.85355L8.14645 14.8536C8.34171 15.0488 8.65829 15.0488 8.85355 14.8536L14.8536 8.85355C15.0488 8.65829 15.0488 8.34171 14.8536 8.14645L6.85355 0.146447C6.75979 0.0526784 6.63261 0 6.5 0H0.5ZM1 6.29289V1H6.29289L13.7929 8.5L8.5 13.7929L1 6.29289ZM4 5C4.55228 5 5 4.55228 5 4C5 3.44772 4.55228 3 4 3C3.44772 3 3 3.44772 3 4C3 4.55228 3.44772 5 4 5Z"/></svg>
