<svg width="15" height="15" viewBox="0 0 15 15" xmlns="http://www.w3.org/2000/svg"><path fill-rule="evenodd" clip-rule="evenodd" d="M10 3.5C10 4.88071 8.88071 6 7.5 6C6.11929 6 5 4.88071 5 3.5C5 2.11929 6.11929 1 7.5 1C8.88071 1 10 2.11929 10 3.5ZM11 3.5C11 5.433 9.433 7 7.5 7C5.567 7 4 5.433 4 3.5C4 1.567 5.567 0 7.5 0C9.433 0 11 1.567 11 3.5ZM2 13.5C2 11.0147 4.01472 9 6.5 9H8.5C10.9853 9 13 11.0147 13 13.5V14H2V13.5ZM6.5 8C3.46243 8 1 10.4624 1 13.5V14.5C1 14.7761 1.22386 15 1.5 15H13.5C13.7761 15 14 14.7761 14 14.5V13.5C14 10.4624 11.5376 8 8.5 8H6.5Z" /></svg>