<?xml version="1.0" encoding="UTF-8"?>
<svg xmlns="http://www.w3.org/2000/svg" width="300px" height="50px" viewBox="0 0 203 34" fill="none">
  <path fill-rule="evenodd" clip-rule="evenodd" d="M100.176 7.7012V6.8212C100.176 6.6212 100.076 6.5212 99.8763 6.5312H94.3263C94.1363 6.5312 94.0363 6.6212 94.0363 6.8212V7.7012C94.0363 7.8912 94.1263 7.9912 94.3263 7.9912H96.0863C96.2063 7.9912 96.2663 8.0512 96.2663 8.1712V23.2412H96.1463L86.3963 6.8212C86.2963 6.6312 86.1263 6.5312 85.8963 6.5312H82.5763C82.3863 6.5312 82.2863 6.6212 82.2863 6.8212V7.7012C82.2863 7.8912 82.3763 7.9912 82.5763 7.9912H84.3363C84.4563 7.9912 84.5163 8.0512 84.5163 8.1712V24.8512C84.5163 24.9712 84.4563 25.0312 84.3363 25.0312H82.5763C82.3863 25.0312 82.2863 25.1212 82.2863 25.3212V26.2012C82.2863 26.3912 82.3763 26.4912 82.5763 26.4912H88.1263C88.3163 26.4912 88.4163 26.4012 88.4163 26.2012V25.3212C88.4163 25.1312 88.3263 25.0312 88.1263 25.0312H86.3663C86.2463 25.0312 86.1863 24.9712 86.1863 24.8512V9.7212H86.2763L96.0063 26.2012C96.1263 26.3912 96.2863 26.4912 96.5063 26.4912H97.6563C97.8463 26.4912 97.9463 26.4012 97.9463 26.2012V8.1712C97.9463 8.0512 98.0063 7.9912 98.1263 7.9912H99.8863C100.076 7.9912 100.176 7.9012 100.176 7.7012ZM50.1562 6.82122C50.1562 6.62122 50.2562 6.53122 50.4462 6.53122H62.9562C63.1562 6.53122 63.2463 6.63122 63.2463 6.82122V9.35122C63.2463 9.55122 63.1462 9.64122 62.9562 9.64122H53.7962C53.6762 9.64122 53.6162 9.70122 53.6162 9.82122V14.7012C53.6162 14.8212 53.6762 14.8812 53.7962 14.8812H61.5162C61.7162 14.8812 61.8062 14.9812 61.8062 15.1712V17.7012C61.8062 17.9012 61.7062 17.9912 61.5162 17.9912H53.7962C53.6762 17.9912 53.6162 18.0512 53.6162 18.1712V23.2212C53.6162 23.3412 53.6762 23.4012 53.7962 23.4012H62.9562C63.1562 23.4012 63.2463 23.5012 63.2463 23.6912V26.2212C63.2463 26.4212 63.1462 26.5112 62.9562 26.5112H50.4462C50.2462 26.5112 50.1562 26.4112 50.1562 26.2212V6.82122ZM72.2462 23.8812C73.6162 23.8812 74.4962 23.2712 74.8862 22.0612C74.9862 21.7312 75.0562 21.3612 75.1062 20.9712C75.1562 20.5812 75.1762 20.0612 75.1762 19.4112C75.1762 18.7612 75.1562 18.2512 75.1062 17.8512C75.0562 17.4612 74.9862 17.1012 74.8862 16.7612C74.4962 15.5512 73.6162 14.9412 72.2462 14.9412C70.8962 14.9412 70.0262 15.5512 69.6362 16.7612C69.5362 17.0912 69.4662 17.4612 69.4162 17.8512C69.3662 18.2412 69.3462 18.7612 69.3462 19.4112C69.3462 20.0612 69.3662 20.5712 69.4162 20.9712C69.4662 21.3612 69.5362 21.7312 69.6362 22.0612C70.0262 23.2812 70.8962 23.8812 72.2462 23.8812ZM75.4762 26.5012C75.2762 26.5012 75.1862 26.4012 75.1862 26.2112V25.1512H75.1562C74.8262 25.6412 74.3562 26.0412 73.7462 26.3512C73.1362 26.6612 72.3562 26.8212 71.3962 26.8212C70.1862 26.8212 69.1562 26.5412 68.3162 25.9712C67.4762 25.4012 66.8662 24.5512 66.4962 23.4212C66.3162 22.8712 66.1962 22.3112 66.1162 21.7312C66.0362 21.1512 65.9962 20.3812 65.9962 19.4212C65.9962 18.4612 66.0362 17.6912 66.1162 17.1112C66.1962 16.5312 66.3262 15.9712 66.4962 15.4212C66.8662 14.2812 67.4762 13.4312 68.3162 12.8612C69.1562 12.2912 70.1862 12.0112 71.3962 12.0112C72.3562 12.0112 73.1362 12.1712 73.7462 12.4812C74.3562 12.7912 74.8262 13.2012 75.1562 13.6812H75.1862V6.82122C75.1862 6.63122 75.2862 6.53122 75.4762 6.53122H78.1762C78.3662 6.53122 78.4662 6.63122 78.4662 6.82122V26.2112C78.4662 26.4112 78.3662 26.5012 78.1762 26.5012H75.4762ZM104.736 20.5312C104.096 20.9812 103.786 21.6812 103.786 22.6212C103.786 23.5012 104.086 24.1812 104.686 24.6512C105.286 25.1212 106.136 25.3612 107.256 25.3612C108.466 25.3612 109.436 25.0712 110.146 24.4912C110.866 23.9112 111.216 23.1412 111.216 22.1912V20.0512C111.216 19.9312 111.156 19.8712 111.036 19.8712H107.746C106.376 19.8612 105.376 20.0812 104.736 20.5312ZM111.606 13.2312C112.376 13.9312 112.766 15.1212 112.766 16.8312V24.8512C112.766 24.9712 112.826 25.0312 112.946 25.0312H114.586C114.786 25.0312 114.876 25.1312 114.876 25.3212V26.2012C114.876 26.4012 114.776 26.4912 114.586 26.4912H111.536C111.336 26.4912 111.246 26.3912 111.246 26.2012V24.7312H111.216C110.926 25.3612 110.406 25.8612 109.676 26.2312C108.946 26.6012 108.026 26.7912 106.926 26.7912C105.476 26.7912 104.326 26.4312 103.486 25.7212C102.646 25.0012 102.226 23.9812 102.226 22.6512C102.226 21.2812 102.686 20.2512 103.596 19.5512C104.506 18.8612 105.826 18.5112 107.546 18.5112H111.036C111.156 18.5112 111.216 18.4512 111.216 18.3312V16.9212C111.216 15.7312 110.966 14.8812 110.456 14.3812C109.946 13.8812 109.036 13.6312 107.726 13.6312C106.606 13.6312 105.666 13.8112 104.906 14.1612C104.806 14.2012 104.756 14.2712 104.756 14.3612V16.0912C104.756 16.2912 104.656 16.3812 104.466 16.3812H103.496C103.296 16.3812 103.206 16.2812 103.206 16.0912V13.5612C103.206 13.3812 103.276 13.2612 103.416 13.1812C103.966 12.8712 104.626 12.6212 105.396 12.4512C106.166 12.2712 106.966 12.1912 107.786 12.1912C109.556 12.1912 110.836 12.5412 111.606 13.2312ZM129.626 13.6612V12.7812C129.626 12.5812 129.526 12.4912 129.346 12.4912H124.996C124.806 12.4912 124.706 12.5812 124.706 12.7812V13.6612C124.706 13.8512 124.796 13.9512 124.996 13.9512H126.346C126.486 13.9512 126.536 14.0212 126.496 14.1612L122.856 24.2312H122.826L119.156 14.1612C119.136 14.1012 119.136 14.0512 119.156 14.0112C119.176 13.9712 119.216 13.9512 119.276 13.9512H120.686C120.876 13.9512 120.976 13.8612 120.976 13.6612V12.7812C120.976 12.5912 120.886 12.4912 120.686 12.4912H116.216C116.026 12.4912 115.926 12.5812 115.926 12.7812V13.6612C115.926 13.8512 116.016 13.9512 116.216 13.9512H117.156C117.276 13.9512 117.346 14.0112 117.366 14.1312L121.916 26.2012C121.976 26.3912 122.076 26.4912 122.236 26.4912H123.326C123.476 26.4912 123.586 26.4012 123.646 26.2012L128.166 14.1312C128.196 14.0112 128.276 13.9512 128.396 13.9512H129.336C129.526 13.9512 129.626 13.8612 129.626 13.6612ZM136.036 6.8212V8.4612C136.036 8.6612 135.936 8.7512 135.746 8.7512H134.456C134.256 8.7512 134.166 8.6512 134.166 8.4612V6.8212C134.166 6.6212 134.266 6.5312 134.456 6.5312H135.746C135.946 6.5212 136.036 6.6212 136.036 6.8212ZM135.896 12.7812V24.8512C135.896 24.9712 135.956 25.0312 136.076 25.0312H137.716C137.916 25.0312 138.006 25.1312 138.006 25.3212V26.2012C138.006 26.4012 137.906 26.4912 137.716 26.4912H132.486C132.286 26.4912 132.196 26.3912 132.196 26.2012V25.3212C132.196 25.1312 132.296 25.0312 132.486 25.0312H134.126C134.246 25.0312 134.306 24.9712 134.306 24.8512V14.1312C134.306 14.0112 134.246 13.9512 134.126 13.9512H132.486C132.286 13.9512 132.196 13.8512 132.196 13.6612V12.7812C132.196 12.5812 132.296 12.4912 132.486 12.4912H135.596C135.796 12.4912 135.896 12.5812 135.896 12.7812ZM142.456 16.1612C142.736 15.3612 143.156 14.7512 143.736 14.3412C144.316 13.9212 145.036 13.7212 145.896 13.7312C147.686 13.7312 148.846 14.5612 149.396 16.2012C149.626 16.9012 149.746 17.9712 149.746 19.4012C149.746 20.8312 149.626 21.8912 149.396 22.6012C149.096 23.4412 148.656 24.0612 148.056 24.4612C147.456 24.8612 146.736 25.0612 145.896 25.0612C144.166 25.0612 143.026 24.2312 142.456 22.5912C142.186 21.7712 142.046 20.7012 142.046 19.3912C142.046 18.0012 142.186 16.9212 142.456 16.1612ZM149.716 14.5112C149.356 13.7612 148.856 13.1912 148.186 12.7912C147.526 12.3912 146.646 12.1912 145.576 12.1712C144.416 12.1712 143.436 12.4612 142.636 13.0512C141.836 13.6412 141.256 14.4712 140.906 15.5512C140.596 16.5112 140.436 17.7812 140.436 19.3712C140.436 20.9612 140.596 22.2312 140.906 23.1912C141.256 24.2612 141.836 25.0912 142.626 25.6712C143.416 26.2512 144.406 26.5412 145.576 26.5412C146.646 26.5412 147.516 26.3412 148.186 25.9512C148.856 25.5612 149.366 24.9912 149.716 24.2512H149.746V26.2812C149.746 29.1212 148.416 30.5412 145.756 30.5412C144.306 30.5412 143.146 30.0412 142.286 29.0412C142.236 28.9612 142.156 28.9212 142.056 28.9212C141.976 28.9212 141.906 28.9512 141.846 29.0112L141.136 29.6312C141.056 29.6912 141.016 29.7712 141.016 29.8712C141.016 29.9112 141.036 29.9712 141.076 30.0512C141.486 30.6312 142.116 31.1212 142.956 31.5012C143.796 31.8812 144.716 32.0712 145.716 32.0712C147.496 32.0712 148.876 31.5812 149.856 30.5912C150.836 29.6012 151.326 28.1512 151.326 26.2312V14.1312C151.326 14.0112 151.386 13.9512 151.506 13.9512H153.146C153.336 13.9512 153.436 13.8612 153.436 13.6612V12.7812C153.436 12.5912 153.346 12.4912 153.146 12.4912H150.036C149.846 12.4912 149.746 12.5812 149.746 12.7812V14.5112H149.716ZM158.506 20.5312C157.866 20.9812 157.556 21.6812 157.556 22.6212C157.556 23.5012 157.856 24.1812 158.456 24.6512C159.056 25.1212 159.906 25.3612 161.026 25.3612C162.236 25.3612 163.206 25.0712 163.916 24.4912C164.626 23.9112 164.986 23.1412 164.986 22.1912V20.0512C164.986 19.9312 164.926 19.8712 164.806 19.8712H161.516C160.146 19.8612 159.136 20.0812 158.506 20.5312ZM165.376 13.2312C166.146 13.9312 166.536 15.1212 166.536 16.8312V24.8512C166.536 24.9712 166.596 25.0312 166.716 25.0312H168.356C168.556 25.0312 168.646 25.1312 168.646 25.3212V26.2012C168.646 26.4012 168.546 26.4912 168.356 26.4912H165.306C165.106 26.4912 165.016 26.3912 165.016 26.2012V24.7312H164.986C164.696 25.3612 164.176 25.8612 163.446 26.2312C162.716 26.6012 161.796 26.7912 160.696 26.7912C159.246 26.7912 158.106 26.4312 157.256 25.7212C156.406 25.0112 155.996 23.9812 155.996 22.6512C155.996 21.2812 156.456 20.2512 157.366 19.5512C158.276 18.8612 159.596 18.5112 161.316 18.5112H164.806C164.926 18.5112 164.986 18.4512 164.986 18.3312V16.9212C164.986 15.7312 164.736 14.8812 164.226 14.3812C163.716 13.8812 162.806 13.6312 161.496 13.6312C160.376 13.6312 159.436 13.8112 158.676 14.1612C158.576 14.2012 158.526 14.2712 158.526 14.3612V16.0912C158.526 16.2912 158.426 16.3812 158.236 16.3812H157.266C157.066 16.3812 156.976 16.2812 156.976 16.0912V13.5612C156.976 13.3812 157.046 13.2612 157.186 13.1812C157.736 12.8712 158.396 12.6212 159.166 12.4512C159.936 12.2712 160.736 12.1912 161.556 12.1912C163.326 12.1912 164.606 12.5412 165.376 13.2312ZM173.766 12.3112V8.2912C173.766 8.0912 173.666 7.9912 173.476 8.0012H172.476C172.286 8.0012 172.186 8.0912 172.186 8.2912V12.3012C172.186 12.4212 172.126 12.4812 172.006 12.4812H170.526C170.336 12.4812 170.236 12.5712 170.236 12.7712V13.6512C170.236 13.8412 170.326 13.9412 170.526 13.9412H171.996C172.116 13.9412 172.176 14.0012 172.176 14.1212V22.7612C172.176 24.1312 172.456 25.1012 173.016 25.6812C173.576 26.2612 174.516 26.5512 175.826 26.5512H176.586C176.776 26.5512 176.876 26.4612 176.876 26.2612V25.3512C176.876 25.1612 176.786 25.0612 176.586 25.0612H176.056C175.206 25.0612 174.616 24.8912 174.276 24.5612C173.936 24.2312 173.766 23.6012 173.766 22.6812V14.1312C173.766 14.0112 173.826 13.9512 173.946 13.9512H176.586C176.776 13.9512 176.876 13.8612 176.876 13.6612V12.7812C176.876 12.5912 176.786 12.4912 176.586 12.4912H173.946C173.826 12.4912 173.766 12.4312 173.766 12.3112ZM182.796 14.4012C182.146 14.8512 181.686 15.5012 181.416 16.3412C181.166 17.1012 181.036 18.1512 181.036 19.4812C181.036 20.8312 181.166 21.8912 181.416 22.6512C181.686 23.4912 182.146 24.1412 182.796 24.5912C183.446 25.0412 184.216 25.2712 185.116 25.2712C186.036 25.2712 186.816 25.0512 187.466 24.5912C188.116 24.1412 188.576 23.4912 188.846 22.6512C189.096 21.8912 189.226 20.8312 189.226 19.4812C189.226 18.1512 189.096 17.1012 188.846 16.3412C188.576 15.5012 188.106 14.8512 187.466 14.4012C186.816 13.9512 186.036 13.7212 185.116 13.7212C184.216 13.7212 183.436 13.9412 182.796 14.4012ZM188.436 13.1512C189.356 13.7912 190.006 14.6812 190.376 15.8412C190.686 16.8412 190.846 18.0512 190.846 19.4812C190.846 20.9312 190.686 22.1512 190.376 23.1512C190.006 24.3112 189.356 25.2012 188.436 25.8412C187.516 26.4812 186.406 26.7912 185.116 26.7912C183.846 26.7912 182.746 26.4712 181.826 25.8412C180.906 25.2012 180.256 24.3112 179.886 23.1512C179.576 22.1512 179.416 20.9312 179.416 19.4812C179.416 18.0512 179.576 16.8412 179.886 15.8412C180.256 14.6812 180.906 13.7912 181.826 13.1512C182.746 12.5112 183.846 12.2012 185.116 12.2012C186.406 12.1912 187.516 12.5112 188.436 13.1512ZM202.856 12.8112C202.856 12.6612 202.776 12.5512 202.596 12.4912C202.216 12.3512 201.656 12.2812 200.916 12.2912C199.976 12.2912 199.186 12.5312 198.526 13.0112C197.876 13.4812 197.386 14.1112 197.076 14.8712H197.046V12.7812C197.046 12.5912 196.956 12.4912 196.756 12.4912H193.646C193.456 12.4912 193.356 12.5912 193.356 12.7812V13.6612C193.356 13.8512 193.446 13.9512 193.646 13.9512H195.286C195.406 13.9512 195.466 14.0112 195.466 14.1312V24.8512C195.466 24.9712 195.406 25.0312 195.286 25.0312H193.646C193.456 25.0312 193.356 25.1212 193.356 25.3212V26.2012C193.356 26.3912 193.446 26.4912 193.646 26.4912H199.106C199.296 26.4912 199.396 26.4012 199.396 26.2012V25.3212C199.396 25.1312 199.306 25.0312 199.106 25.0312H197.226C197.106 25.0312 197.046 24.9712 197.046 24.8512V18.6212C197.046 17.0512 197.386 15.8612 198.076 15.0512C198.756 14.2412 199.656 13.8312 200.776 13.8312C201.306 13.8312 201.886 13.9012 202.536 14.0412C202.746 14.1012 202.856 14.0212 202.856 13.7812V12.8112Z" fill="#1C1F21"></path>
  <g clip-path="url(#clip0)">
    <path fill-rule="evenodd" clip-rule="evenodd" d="M11.227 9.62835H9.62891V6.87169C9.62891 6.09263 10.0684 5.38349 10.7675 5.03392C11.4667 4.68434 12.2957 4.75426 12.9249 5.22369L21.7742 11.8656V13.8632L11.9661 6.50214C11.7663 6.35232 11.5566 6.42223 11.4867 6.46219C11.4068 6.50214 11.227 6.612 11.227 6.87169V9.62835ZM21.7743 23.3717H23.3723V26.1284C23.3723 26.9074 22.9428 27.6166 22.2437 27.9661C21.9441 28.116 21.6244 28.1859 21.3148 28.1859C20.8754 28.1859 20.4459 28.046 20.0863 27.7764L11.2271 21.1344V19.1368L21.0451 26.4979C21.2449 26.6477 21.4447 26.5778 21.5246 26.5379C21.6045 26.4979 21.7743 26.3781 21.7743 26.1284V23.3717ZM27.7767 12.9243L21.1348 21.7736H19.1372L26.4983 11.9655C26.6481 11.7557 26.5782 11.556 26.5382 11.4761C26.4983 11.4061 26.3884 11.2264 26.1287 11.2264H23.3721V9.6283H26.1287C26.9178 9.6283 27.6169 10.0578 27.9665 10.7669C28.3261 11.4661 28.2462 12.2951 27.7767 12.9243ZM6.8823 21.7737H9.62897V23.3717H6.8823C6.09325 23.3717 5.38411 22.9323 5.03454 22.2331C4.68496 21.5339 4.76486 20.705 5.23429 20.0757L11.8663 11.2264H13.8638L6.51274 21.0346C6.35294 21.2443 6.42285 21.4441 6.4628 21.524C6.50276 21.5939 6.62261 21.7737 6.8823 21.7737Z" fill="#F7BF12"></path>
    <path d="M21.7742 18.2578V2.05748C21.7742 1.75784 21.5545 1.64797 21.4546 1.61801C21.3647 1.58805 21.125 1.53811 20.9352 1.77782L16.4007 7.83048L15.1222 6.87164L19.6568 0.818978C20.1961 0.0998502 21.095 -0.189799 21.954 0.0998502C22.8129 0.389499 23.3623 1.14858 23.3623 2.05748V16.1204L21.7742 18.2578ZM16.6005 25.1595L12.066 31.2121C11.8862 31.4518 11.6465 31.4019 11.5466 31.3719C11.4467 31.342 11.227 31.2321 11.227 30.9325V14.7421L9.62891 16.8695V30.9325C9.62891 31.8314 10.1782 32.6005 11.0372 32.8901C11.2569 32.96 11.4867 33 11.7064 33C12.3356 33 12.9349 32.7103 13.3344 32.171L17.8689 26.1183L16.6005 25.1595Z" fill="#FAA11C"></path>
    <path d="M32.1716 19.6661C32.8908 20.2055 33.1704 21.1044 32.8908 21.9633C32.6011 22.8223 31.842 23.3716 30.9331 23.3716H16.8702L14.7428 21.7736H30.9331C31.2328 21.7736 31.3426 21.5538 31.3726 21.454C31.4026 21.3641 31.4525 21.1144 31.2128 20.9346L25.1601 16.3901L26.119 15.1116L32.1716 19.6661ZM1.62867 11.546C1.65863 11.4561 1.7685 11.2264 2.06814 11.2264H18.2685L16.1411 9.6283H2.07812C1.17921 9.6283 0.410146 10.1776 0.120497 11.0366C-0.159164 11.8955 0.120497 12.7945 0.839625 13.3338L6.89229 17.8683L7.85113 16.5899L1.79846 12.0554C1.54877 11.8756 1.59871 11.6359 1.62867 11.546Z" fill="#F7CC0D"></path>
  </g>
  <defs>
    <clipPath id="clip0">
      <rect width="33" height="33" fill="white"></rect>
    </clipPath>
  </defs>
</svg>
