<svg xmlns="http://www.w3.org/2000/svg" viewBox="0 0 203.1 33"><path class="words" d="M50.2 6.8c0-.2.1-.3.3-.3H63c.2 0 .3.1.3.3v2.5c0 .2-.1.3-.3.3h-9.2c-.1 0-.2.1-.2.2v4.9c0 .1.1.2.2.2h7.7c.2 0 .3.1.3.3v2.5c0 .2-.1.3-.3.3h-7.7c-.1 0-.2.1-.2.2v5.1c0 .1.1.2.2.2H63c.2 0 .3.1.3.3v2.5c0 .2-.1.3-.3.3H50.5c-.2 0-.3-.1-.3-.3V6.8zm22.1 17.1c-1.4 0-2.2-.6-2.6-1.8-.1-.3-.2-.7-.2-1.1 0-.4-.1-.9-.1-1.6 0-.6 0-1.2.1-1.6 0-.4.1-.8.2-1.1.4-1.2 1.3-1.8 2.6-1.8 1.4 0 2.3.6 2.6 1.8.1.3.2.7.2 1.1 0 .4.1.9.1 1.6 0 .6 0 1.2-.1 1.6 0 .4-.1.8-.2 1.1-.3 1.2-1.2 1.8-2.6 1.8m6 2.6c.2 0 .3-.1.3-.3V6.8c0-.2-.1-.3-.3-.3h-2.7c-.2 0-.3.1-.3.3v6.9c-.3-.5-.8-.9-1.4-1.2-.6-.3-1.4-.5-2.4-.5-1.2 0-2.2.3-3.1.9-.8.6-1.5 1.4-1.8 2.6-.2.5-.3 1.1-.4 1.7-.1.6-.1 1.3-.1 2.3 0 1 0 1.7.1 2.3.1.6.2 1.1.4 1.7.4 1.1 1 2 1.8 2.6.8.6 1.9.9 3.1.9 1 0 1.7-.2 2.4-.5.6-.3 1.1-.7 1.4-1.2v1.1c0 .2.1.3.3.3h2.7zm22-19.7c0-.2-.1-.3-.3-.3h-5.6c-.2 0-.3.1-.3.3v.9c0 .2.1.3.3.3h1.8c.1 0 .2.1.2.2v15.1h-.1L86.5 6.8c-.1-.2-.3-.3-.5-.3h-3.3c-.2 0-.3.1-.3.3v.9c0 .2.1.3.3.3h1.8c.1 0 .2.1.2.2v16.7c0 .1-.1.2-.2.2h-1.8c-.2 0-.3.1-.3.3v.9c0 .2.1.3.3.3h5.6c.2 0 .3-.1.3-.3v-.9c0-.2-.1-.3-.3-.3h-1.8c-.1 0-.2-.1-.2-.2V9.7h.1l9.7 16.5c.1.2.3.3.5.3h1.1c.2 0 .3-.1.3-.3v-18c0-.1.1-.2.2-.2h1.8c.2 0 .3-.1.3-.3v-.9m4.6 13.8c.6-.5 1.6-.7 3-.7h3.3c.1 0 .2.1.2.2v2.1c0 1-.4 1.7-1.1 2.3-.7.6-1.7.9-2.9.9-1.1 0-2-.2-2.6-.7-.6-.5-.9-1.1-.9-2 0-1 .3-1.7 1-2.1m6.8-7.4c-.8-.7-2.1-1-3.8-1-.8 0-1.6.1-2.4.3-.8.2-1.4.4-2 .7-.1.1-.2.2-.2.4v2.5c0 .2.1.3.3.3h1c.2 0 .3-.1.3-.3v-1.7c0-.1 0-.2.1-.2.8-.4 1.7-.5 2.8-.5 1.3 0 2.2.2 2.7.8s.8 1.3.8 2.5v1.4c0 .1-.1.2-.2.2h-3.5c-1.7 0-3 .3-4 1-.9.7-1.4 1.7-1.4 3.1 0 1.3.4 2.4 1.3 3.1.8.7 2 1.1 3.4 1.1 1.1 0 2-.2 2.8-.6.7-.4 1.2-.9 1.5-1.5v1.5c0 .2.1.3.3.3h3.1c.2 0 .3-.1.3-.3v-.9c0-.2-.1-.3-.3-.3H113c-.1 0-.2-.1-.2-.2v-8c.1-1.8-.3-3-1.1-3.7m18.1-.4c0-.2-.1-.3-.3-.3h-4.4c-.2 0-.3.1-.3.3v.9c0 .2.1.3.3.3h1.4c.1 0 .2.1.1.2L123 24.3l-3.7-10.1v-.1l.1-.1h1.4c.2 0 .3-.1.3-.3v-.9c0-.2-.1-.3-.3-.3h-4.5c-.2 0-.3.1-.3.3v.9c0 .2.1.3.3.3h.9c.1 0 .2.1.2.2l4.6 12.1c.1.2.2.3.3.3h1.1c.2 0 .3-.1.3-.3l4.5-12.1c0-.1.1-.2.2-.2h.9c.2 0 .3-.1.3-.3v-.9m6.6-6c0-.2-.1-.3-.3-.3h-1.3c-.2 0-.3.1-.3.3v1.6c0 .2.1.3.3.3h1.3c.2 0 .3-.1.3-.3V6.8m-.1 6c0-.2-.1-.3-.3-.3h-3.1c-.2 0-.3.1-.3.3v.9c0 .2.1.3.3.3h1.6c.1 0 .2.1.2.2v10.7c0 .1-.1.2-.2.2h-1.6c-.2 0-.3.1-.3.3v.9c0 .2.1.3.3.3h5.2c.2 0 .3-.1.3-.3v-.9c0-.2-.1-.3-.3-.3h-1.6c-.1 0-.2-.1-.2-.2V12.8m7.8 1.5c.6-.4 1.3-.6 2.2-.6 1.8 0 2.9.8 3.5 2.5.2.7.4 1.8.4 3.2 0 1.4-.1 2.5-.4 3.2-.3.8-.7 1.5-1.3 1.9-.6.4-1.3.6-2.2.6-1.7 0-2.9-.8-3.4-2.5-.3-.8-.4-1.9-.4-3.2 0-1.4.1-2.5.4-3.2.2-.8.6-1.4 1.2-1.9m4.5-1.5c-.7-.4-1.5-.6-2.6-.6-1.2 0-2.1.3-2.9.9-.8.6-1.4 1.4-1.7 2.5-.3 1-.5 2.2-.5 3.8 0 1.6.2 2.9.5 3.8.4 1.1.9 1.9 1.7 2.5.8.6 1.8.9 3 .9 1.1 0 2-.2 2.6-.6.7-.4 1.2-1 1.5-1.7v2c0 2.8-1.3 4.3-4 4.3-1.5 0-2.6-.5-3.5-1.5-.1-.1-.1-.1-.2-.1s-.1 0-.2.1l-.7.6c-.1.1-.1.1-.1.2 0 0 0 .1.1.2.4.6 1 1.1 1.9 1.5.8.4 1.8.6 2.8.6 1.8 0 3.2-.5 4.1-1.5s1.5-2.4 1.5-4.4V14.1c0-.1.1-.2.2-.2h1.6c.2 0 .3-.1.3-.3v-.9c0-.2-.1-.3-.3-.3h-3.1c-.2 0-.3.1-.3.3v1.7c-.5-.6-1.1-1.2-1.7-1.6m10.3 7.8c.6-.5 1.6-.7 3-.7h3.3c.1 0 .2.1.2.2v2.1c0 1-.4 1.7-1.1 2.3-.7.6-1.7.9-2.9.9-1.1 0-2-.2-2.6-.7-.6-.5-.9-1.1-.9-2 0-1 .4-1.7 1-2.1m6.9-7.4c-.8-.7-2.1-1-3.8-1-.8 0-1.6.1-2.4.3-.8.2-1.4.4-2 .7-.1.1-.2.2-.2.4v2.5c0 .2.1.3.3.3h1c.2 0 .3-.1.3-.3v-1.7c0-.1 0-.2.1-.2.8-.4 1.7-.5 2.8-.5 1.3 0 2.2.2 2.7.8.5.5.8 1.3.8 2.5v1.4c0 .1-.1.2-.2.2h-3.5c-1.7 0-3 .3-4 1-.9.7-1.4 1.7-1.4 3.1 0 1.3.4 2.4 1.3 3.1s2 1.1 3.4 1.1c1.1 0 2-.2 2.8-.6.7-.4 1.2-.9 1.5-1.5v1.5c0 .2.1.3.3.3h3.1c.2 0 .3-.1.3-.3v-.9c0-.2-.1-.3-.3-.3h-1.6c-.1 0-.2-.1-.2-.2v-8c0-1.8-.3-3-1.1-3.7m8.4-4.9c0-.2-.1-.3-.3-.3h-1c-.2 0-.3.1-.3.3v4c0 .1-.1.2-.2.2h-1.5c-.2 0-.3.1-.3.3v.9c0 .2.1.3.3.3h1.5c.1 0 .2.1.2.2v8.6c0 1.4.3 2.3.8 2.9.6.6 1.5.9 2.8.9h.8c.2 0 .3-.1.3-.3v-.9c0-.2-.1-.3-.3-.3h-.5c-.8 0-1.4-.2-1.8-.5-.3-.3-.5-1-.5-1.9v-8.6c0-.1.1-.2.2-.2h2.6c.2 0 .3-.1.3-.3v-.9c0-.2-.1-.3-.3-.3h-2.6c-.1 0-.2-.1-.2-.2V8.3m9 6.1c.6-.5 1.4-.7 2.3-.7.9 0 1.7.2 2.4.7.6.5 1.1 1.1 1.4 1.9.3.8.4 1.8.4 3.1 0 1.4-.1 2.4-.4 3.2-.3.8-.7 1.5-1.4 1.9-.6.5-1.4.7-2.4.7-.9 0-1.7-.2-2.3-.7s-1.1-1.1-1.4-1.9c-.3-.8-.4-1.8-.4-3.2 0-1.3.1-2.4.4-3.1.3-.8.8-1.4 1.4-1.9m5.7-1.2c-.9-.6-2-1-3.3-1-1.3 0-2.4.3-3.3 1-.9.6-1.6 1.5-1.9 2.7-.3 1-.5 2.2-.5 3.6 0 1.5.2 2.7.5 3.7.4 1.2 1 2.1 1.9 2.7.9.6 2 1 3.3 1 1.3 0 2.4-.3 3.3-1 .9-.6 1.6-1.5 1.9-2.7.3-1 .5-2.2.5-3.7 0-1.4-.2-2.6-.5-3.6-.4-1.2-1-2.1-1.9-2.7m14.2-.7c-.4-.1-.9-.2-1.7-.2-.9 0-1.7.2-2.4.7-.7.5-1.1 1.1-1.5 1.9v-2.1c0-.2-.1-.3-.3-.3h-3.1c-.2 0-.3.1-.3.3v.9c0 .2.1.3.3.3h1.6c.1 0 .2.1.2.2v10.7c0 .1-.1.2-.2.2h-1.6c-.2 0-.3.1-.3.3v.9c0 .2.1.3.3.3h5.5c.2 0 .3-.1.3-.3v-.9c0-.2-.1-.3-.3-.3h-1.9c-.1 0-.2-.1-.2-.2v-6.2c0-1.6.3-2.8 1-3.6.7-.8 1.6-1.2 2.7-1.2.5 0 1.1.1 1.8.2.2.1.3 0 .3-.3v-1c0-.1-.1-.2-.2-.3"/><path class="mark" d="M31.4 21.5c0 .1-.1.3-.4.3h-9.8l4-5.4 6.1 4.5c.2.2.1.5.1.6m-9.9 5.1c-.1 0-.3.1-.5 0l-4.2-3.1h4.9v2.8c.1.1-.1.2-.2.3m-9.4 4.7c-.2.2-.4.2-.5.2-.1 0-.3-.1-.3-.4v-9.8l5.4 4-4.6 6zm-5.6-9.8c0-.1-.1-.3 0-.5l2.1-2.8 1-1.3v4.9H6.9c-.3 0-.4-.2-.4-.3m-4.7-9.4c-.2-.2-.2-.4-.2-.5 0-.1.1-.3.4-.3h9.8l-4 5.4-6-4.6zm9.7-5.6c.1 0 .3-.1.5 0l4.2 3.1h-4.9V6.8c-.1-.2.1-.3.2-.3M21 1.8c.2-.2.4-.2.5-.2.1 0 .3.1.3.4v9.8l-5.4-4 4.6-6zm-6.2 20l-3.5-2.6v-4.4l2.6-3.5h4.4l3.5 2.6v4.4l-2.6 3.5h-4.4zm11.8-10.3c0 .1.1.3 0 .5l-2.1 2.8-1 1.3v-4.9h2.8c.1 0 .2.2.3.3m5.6 8.2l-6.1-4.5 1.7-2.2c.5-.6.5-1.5.2-2.2-.4-.7-1.1-1.1-1.8-1.1h-2.8V2.1c0-.9-.6-1.7-1.4-2-.9-.3-1.8 0-2.3.7l-4.5 6.1L13 5.2c-.6-.5-1.5-.5-2.2-.2-.7.4-1.1 1.1-1.1 1.8v2.8H2.1c-.9 0-1.7.6-2 1.4-.3.9 0 1.8.7 2.3l6.1 4.5L5.2 20c-.5.6-.5 1.5-.2 2.2.4.7 1.1 1.1 1.8 1.1h2.8V31c0 .9.6 1.7 1.4 2 .2.1.4.1.7.1.6 0 1.2-.3 1.6-.8l4.5-6.1 2.2 1.7c.6.5 1.5.5 2.2.2.7-.4 1.1-1.1 1.1-1.8v-2.8H31c.9 0 1.7-.6 2-1.4.2-1-.1-1.9-.8-2.4"/></svg>