<svg xmlns="http://www.w3.org/2000/svg" viewBox="-203 380 33.1 33.1"><path d="M-171.6 401.5c0 .1-.1.3-.4.3h-9.8l4-5.4 6.1 4.5c.2.2.1.5.1.6m-9.9 5.1c-.1 0-.3.1-.5 0l-4.2-3.1h4.9v2.8c.1.1-.1.2-.2.3m-9.4 4.7c-.2.2-.4.2-.5.2-.1 0-.3-.1-.3-.4v-9.8l5.4 4-4.6 6zm-5.6-9.8c0-.1-.1-.3 0-.5l2.1-2.8 1-1.3v4.9h-2.7c-.3 0-.4-.2-.4-.3m-4.7-9.4c-.2-.2-.2-.4-.2-.5s.1-.3.4-.3h9.8l-4 5.4-6-4.6zm9.7-5.6c.1 0 .3-.1.5 0l4.2 3.1h-4.9v-2.8c-.1-.2.1-.3.2-.3m9.5-4.7c.2-.2.4-.2.5-.2s.3.1.3.4v9.8l-5.4-4 4.6-6zm-6.2 20l-3.5-2.6v-4.4l2.6-3.5h4.4l3.5 2.6v4.4l-2.6 3.5h-4.4zm11.8-10.3c0 .1.1.3 0 .5l-2.1 2.8-1 1.3v-4.9h2.8c.1 0 .2.2.3.3m5.6 8.2l-6.1-4.5 1.7-2.2c.5-.6.5-1.5.2-2.2-.4-.7-1.1-1.1-1.8-1.1h-2.8v-7.6c0-.9-.6-1.7-1.4-2-.9-.3-1.8 0-2.3.7l-4.5 6.1-2.2-1.7c-.6-.5-1.5-.5-2.2-.2-.7.4-1.1 1.1-1.1 1.8v2.8h-7.6c-.9 0-1.7.6-2 1.4-.3.9 0 1.8.7 2.3l6.1 4.5-1.7 2.2c-.5.6-.5 1.5-.2 2.2.4.7 1.1 1.1 1.8 1.1h2.8v7.7c0 .9.6 1.7 1.4 2 .2.1.4.1.7.1.6 0 1.2-.3 1.6-.8l4.5-6.1 2.2 1.7c.6.5 1.5.5 2.2.2.7-.4 1.1-1.1 1.1-1.8v-2.8h7.7c.9 0 1.7-.6 2-1.4.2-1-.1-1.9-.8-2.4"/></svg>