<svg id="Layer_1" xmlns="http://www.w3.org/2000/svg" viewBox="-491 760.9 33 33"><style>.st0{fill:#faa11c}.st1{fill:#f7bf12}.st2{fill:#f7cc0d}</style><path class="st0" d="M-469.2 779.2V763c0-.3-.2-.4-.3-.4-.1 0-.3-.1-.5.2l-4.5 6.1-1.3-1 4.5-6.1c.5-.7 1.4-1 2.3-.7.9.3 1.4 1.1 1.4 2v14.1l-1.6 2z"/><path class="st1" d="M-463 771.7c-.4-.7-1.1-1.1-1.8-1.1h-2.8v1.6h2.8c.3 0 .4.2.4.3 0 .1.1.3 0 .5l-7.4 9.8h2l6.6-8.9c.5-.7.6-1.5.2-2.2"/><path class="st2" d="M-458.8 780.6l-6.1-4.5-1 1.3 6.1 4.5c.2.2.2.4.2.5 0 .1-.1.3-.4.3h-16.2l2.1 1.6h14.1c.9 0 1.7-.6 2-1.4.2-.8 0-1.7-.8-2.3"/><path class="st1" d="M-467.6 784.3h-1.6v2.8c0 .3-.2.4-.3.4-.1 0-.3.1-.5 0l-9.8-7.4v2l8.9 6.6c.4.3.8.4 1.2.4.3 0 .6-.1.9-.2.7-.4 1.1-1.1 1.1-1.8v-2.8z"/><path class="st0" d="M-474.4 786.1l-4.5 6.1c-.2.2-.4.2-.5.2-.1 0-.3-.1-.3-.4v-16.2l-1.6 2.1V792c0 .9.6 1.7 1.4 2 .2.1.4.1.7.1.6 0 1.2-.3 1.6-.8l4.5-6.1-1.3-1.1z"/><path class="st1" d="M-484.1 782.7c-.3 0-.4-.2-.4-.3 0-.1-.1-.3 0-.5l7.4-9.8h-2l-6.6 8.9c-.5.6-.5 1.5-.2 2.2.4.7 1.1 1.1 1.8 1.1h2.8v-1.6h-2.8z"/><path class="st2" d="M-489.3 772.5c0-.1.1-.3.4-.3h16.2l-2.1-1.6h-14.1c-.9 0-1.7.6-2 1.4-.3.9 0 1.8.7 2.3l6.1 4.5 1-1.3-6.1-4.5c-.2-.2-.2-.4-.1-.5"/><path class="st1" d="M-478 766.2c-.6-.5-1.5-.5-2.2-.2-.7.4-1.1 1.1-1.1 1.8v2.8h1.6v-2.8c0-.3.2-.4.3-.4.1 0 .3-.1.5 0l9.8 7.4v-2l-8.9-6.6z"/></svg>